<?xml version="1.0" encoding="UTF-8"?>
<svg width="512" height="512" viewBox="0 0 512 512" xmlns="http://www.w3.org/2000/svg">
    <!-- Filters for shadow and glow -->
    <defs>
        <linearGradient id="bgGradient" x1="0" y1="0" x2="1" y2="1">
            <stop offset="0%" stop-color="#000000"/>
            <stop offset="100%" stop-color="#1a0033"/>
        </linearGradient>
        <filter id="shadow" x="-20%" y="-20%" width="140%" height="140%">
            <feDropShadow dx="0" dy="6" stdDeviation="6" flood-color="#000" flood-opacity="0.6"/>
        </filter>
        <filter id="glow-green" x="-30%" y="-30%" width="160%" height="160%">
            <feGaussianBlur stdDeviation="6" result="coloredBlur"/>
            <feFlood flood-color="#00ff00" result="glowColor"/>
            <feComposite in="glowColor" in2="coloredBlur" operator="in" result="glow"/>
            <feMerge>
                <feMergeNode in="glow"/>
                <feMergeNode in="SourceGraphic"/>
            </feMerge>
        </filter>
        <filter id="glow-alien" x="-30%" y="-30%" width="160%" height="160%">
            <feGaussianBlur stdDeviation="8" result="coloredBlur"/>
            <feFlood flood-color="#ffd600" result="glowColor"/>
            <feComposite in="glowColor" in2="coloredBlur" operator="in" result="glow"/>
            <feMerge>
                <feMergeNode in="glow"/>
                <feMergeNode in="SourceGraphic"/>
            </feMerge>
        </filter>
        <radialGradient id="centerGlow" cx="50%" cy="50%" r="50%">
            <stop offset="0%" stop-color="#fff" stop-opacity="0.12"/>
            <stop offset="100%" stop-color="#fff" stop-opacity="0"/>
        </radialGradient>
        <!-- Mask for the space border -->
        <mask id="spaceBorderMask">
            <rect x="32" y="32" width="448" height="448" fill="white"/>
            <rect x="48" y="48" width="416" height="416" fill="black"/>
        </mask>
    </defs>
    <!-- Space border (gradient and stars) between green frames -->
    <g mask="url(#spaceBorderMask)">
        <rect x="32" y="32" width="448" height="448" fill="url(#bgGradient)"/>
        <g fill="#ffffff">
            <circle cx="70" cy="60" r="2"/>
            <circle cx="150" cy="120" r="2"/>
            <circle cx="350" cy="180" r="2"/>
            <circle cx="250" cy="300" r="2"/>
            <circle cx="100" cy="400" r="2"/>
            <circle cx="380" cy="320" r="2"/>
            <circle cx="440" cy="100" r="2"/>
            <circle cx="480" cy="400" r="2"/>
            <circle cx="60" cy="480" r="2"/>
        </g>
    </g>
    <!-- Fondo central -->
    <rect x="48" y="48" width="416" height="416" fill="url(#bgGradient)"/>
    <ellipse cx="256" cy="256" rx="140" ry="140" fill="url(#centerGlow)"/>
    <!-- Central stars -->
    <g fill="#ffffff">
        <circle cx="100" cy="100" r="2"/>
        <circle cx="200" cy="180" r="1.5"/>
        <circle cx="300" cy="120" r="2"/>
        <circle cx="400" cy="200" r="1.5"/>
        <circle cx="350" cy="350" r="2"/>
        <circle cx="180" cy="300" r="1.5"/>
        <circle cx="250" cy="400" r="2"/>
        <circle cx="420" cy="420" r="1.5"/>
        <circle cx="120" cy="420" r="1.5"/>
        <!-- Extra stars -->
        <circle cx="160" cy="140" r="1"/>
        <circle cx="220" cy="220" r="1.2"/>
        <circle cx="320" cy="260" r="1.3"/>
        <circle cx="370" cy="170" r="1"/>
        <circle cx="280" cy="370" r="1.5"/>
        <circle cx="330" cy="410" r="1"/>
        <circle cx="390" cy="110" r="1.2"/>
        <circle cx="140" cy="350" r="1.3"/>
        <circle cx="210" cy="390" r="1"/>
        <circle cx="380" cy="250" r="1.2"/>
        <circle cx="270" cy="320" r="1"/>
        <circle cx="310" cy="200" r="1.2"/>
        <circle cx="370" cy="390" r="1.3"/>
        <circle cx="160" cy="250" r="1.2"/>
        <circle cx="240" cy="320" r="1"/>
        <!-- More stars for empty areas -->
        <circle cx="290" cy="180" r="1.1"/>
        <circle cx="360" cy="100" r="1"/>
        <circle cx="130" cy="200" r="1.2"/>
        <circle cx="180" cy="120" r="1"/>
        <circle cx="390" cy="300" r="1.2"/>
        <circle cx="320" cy="390" r="1.1"/>
        <circle cx="220" cy="320" r="1"/>
        <circle cx="260" cy="220" r="1.2"/>
        <circle cx="340" cy="160" r="1.1"/>
        <circle cx="370" cy="320" r="1.2"/>
        <circle cx="200" cy="250" r="1.1"/>
        <circle cx="150" cy="380" r="1.2"/>
        <circle cx="390" cy="370" r="1.1"/>
        <circle cx="300" cy="420" r="1.2"/>
        <circle cx="250" cy="150" r="1.1"/>
        <circle cx="120" cy="300" r="1.2"/>
        <circle cx="420" cy="150" r="1.1"/>
        <circle cx="340" cy="300" r="1.2"/>
        <circle cx="200" cy="340" r="1.1"/>
        <circle cx="280" cy="200" r="1.2"/>
    </g>
    <!-- Alien retro/pixel-art style with glow and shadow -->
    <g transform="translate(180, 180)" filter="url(#shadow)">
        <g filter="url(#glow-alien)">
            <!-- Saucer base (pixel) -->
            <rect x="-20" y="18" width="40" height="8" fill="#7d2b8a"/>
            <!-- Saucer top (pixel) -->
            <rect x="-14" y="10" width="28" height="8" fill="#a84fd6"/>
            <!-- Alien body (pixel) -->
            <rect x="-10" y="0" width="20" height="14" fill="#a84fd6"/>
            <!-- Blue belly (pixel) -->
            <rect x="-7" y="8" width="14" height="6" fill="#2e3be6"/>
            <!-- Yellow details (pixel) -->
            <rect x="-20" y="24" width="6" height="4" fill="#ffd600"/>
            <rect x="14" y="24" width="6" height="4" fill="#ffd600"/>
            <!-- Eyes (pixel) -->
            <rect x="-7" y="2" width="4" height="4" fill="#2e3be6"/>
            <rect x="3" y="2" width="4" height="4" fill="#2e3be6"/>
            <!-- Antennas (pixel) -->
            <rect x="-6" y="-8" width="2" height="8" fill="#ffd600"/>
            <rect x="6" y="-8" width="2" height="8" fill="#ffd600"/>
            <rect x="-7" y="-12" width="4" height="4" fill="#ffd600"/>
            <rect x="5" y="-12" width="4" height="4" fill="#ffd600"/>
        </g>
    </g>
    <!-- Second Alien (top right) -->
    <g transform="translate(350, 120)" filter="url(#shadow)">
        <g filter="url(#glow-alien)">
            <!-- Saucer base (pixel) -->
            <rect x="-16" y="14" width="32" height="6" fill="#7d2b8a"/>
            <!-- Saucer top (pixel) -->
            <rect x="-12" y="8" width="24" height="6" fill="#a84fd6"/>
            <!-- Alien body (pixel) -->
            <rect x="-8" y="0" width="16" height="12" fill="#a84fd6"/>
            <!-- Blue belly (pixel) -->
            <rect x="-6" y="6" width="12" height="6" fill="#2e3be6"/>
            <!-- Yellow details (pixel) -->
            <rect x="-16" y="20" width="4" height="4" fill="#ffd600"/>
            <rect x="12" y="20" width="4" height="4" fill="#ffd600"/>
            <!-- Eyes (pixel) -->
            <rect x="-6" y="2" width="3" height="3" fill="#2e3be6"/>
            <rect x="3" y="2" width="3" height="3" fill="#2e3be6"/>
            <!-- Antennas (pixel) -->
            <rect x="-5" y="-6" width="2" height="6" fill="#ffd600"/>
            <rect x="5" y="-6" width="2" height="6" fill="#ffd600"/>
            <rect x="-6" y="-10" width="3" height="3" fill="#ffd600"/>
            <rect x="4" y="-10" width="3" height="3" fill="#ffd600"/>
        </g>
    </g>
    <!-- Third Alien (bottom left) -->
    <g transform="translate(120, 350)" filter="url(#shadow)">
        <g filter="url(#glow-alien)">
            <!-- Saucer base (pixel) -->
            <rect x="-14" y="12" width="28" height="6" fill="#7d2b8a"/>
            <!-- Saucer top (pixel) -->
            <rect x="-10" y="6" width="20" height="6" fill="#a84fd6"/>
            <!-- Alien body (pixel) -->
            <rect x="-7" y="0" width="14" height="10" fill="#a84fd6"/>
            <!-- Blue belly (pixel) -->
            <rect x="-5" y="5" width="10" height="5" fill="#2e3be6"/>
            <!-- Yellow details (pixel) -->
            <rect x="-14" y="18" width="4" height="4" fill="#ffd600"/>
            <rect x="10" y="18" width="4" height="4" fill="#ffd600"/>
            <!-- Eyes (pixel) -->
            <rect x="-5" y="2" width="3" height="3" fill="#2e3be6"/>
            <rect x="2" y="2" width="3" height="3" fill="#2e3be6"/>
            <!-- Antennas (pixel) -->
            <rect x="-4" y="-6" width="2" height="6" fill="#ffd600"/>
            <rect x="4" y="-6" width="2" height="6" fill="#ffd600"/>
            <rect x="-5" y="-10" width="3" height="3" fill="#ffd600"/>
            <rect x="3" y="-10" width="3" height="3" fill="#ffd600"/>
        </g>
    </g>
    <!-- Fourth Alien (top left) -->
    <g transform="translate(100, 100)" filter="url(#shadow)">
        <g filter="url(#glow-alien)">
            <!-- Saucer base (pixel) -->
            <rect x="-12" y="10" width="24" height="5" fill="#7d2b8a"/>
            <!-- Saucer top (pixel) -->
            <rect x="-9" y="5" width="18" height="5" fill="#a84fd6"/>
            <!-- Alien body (pixel) -->
            <rect x="-6" y="0" width="12" height="8" fill="#a84fd6"/>
            <!-- Blue belly (pixel) -->
            <rect x="-4" y="4" width="8" height="4" fill="#2e3be6"/>
            <!-- Yellow details (pixel) -->
            <rect x="-12" y="15" width="3" height="3" fill="#ffd600"/>
            <rect x="9" y="15" width="3" height="3" fill="#ffd600"/>
            <!-- Eyes (pixel) -->
            <rect x="-4" y="1" width="2" height="2" fill="#2e3be6"/>
            <rect x="2" y="1" width="2" height="2" fill="#2e3be6"/>
            <!-- Antennas (pixel) -->
            <rect x="-3" y="-5" width="1" height="5" fill="#ffd600"/>
            <rect x="3" y="-5" width="1" height="5" fill="#ffd600"/>
            <rect x="-4" y="-8" width="2" height="2" fill="#ffd600"/>
            <rect x="2" y="-8" width="2" height="2" fill="#ffd600"/>
        </g>
    </g>
    <!-- Fifth Alien (middle-right) -->
    <g transform="translate(380, 220)" filter="url(#shadow)">
        <g filter="url(#glow-alien)">
            <!-- Saucer base (pixel) -->
            <rect x="-18" y="16" width="36" height="7" fill="#7d2b8a"/>
            <!-- Saucer top (pixel) -->
            <rect x="-14" y="9" width="28" height="7" fill="#a84fd6"/>
            <!-- Alien body (pixel) -->
            <rect x="-10" y="0" width="20" height="14" fill="#a84fd6"/>
            <!-- Blue belly (pixel) -->
            <rect x="-7" y="8" width="14" height="6" fill="#2e3be6"/>
            <!-- Yellow details (pixel) -->
            <rect x="-18" y="23" width="5" height="5" fill="#ffd600"/>
            <rect x="13" y="23" width="5" height="5" fill="#ffd600"/>
            <!-- Eyes (pixel) -->
            <rect x="-7" y="2" width="4" height="4" fill="#2e3be6"/>
            <rect x="3" y="2" width="4" height="4" fill="#2e3be6"/>
            <!-- Antennas (pixel) -->
            <rect x="-6" y="-8" width="2" height="8" fill="#ffd600"/>
            <rect x="6" y="-8" width="2" height="8" fill="#ffd600"/>
            <rect x="-7" y="-12" width="4" height="4" fill="#ffd600"/>
            <rect x="5" y="-12" width="4" height="4" fill="#ffd600"/>
        </g>
    </g>
    <!-- Retro/pixel-art style F-16 (centered, with shadow) -->
    <g transform="translate(256,370)" filter="url(#shadow)">
        <!-- Fuselage -->
        <rect x="-8" y="-32" width="16" height="40" fill="#bfc7b2"/>
        <!-- Nose -->
        <rect x="-4" y="-40" width="8" height="8" fill="#e6e6e6"/>
        <!-- Cockpit -->
        <rect x="-5" y="-28" width="10" height="10" fill="#3a5a7a"/>
        <!-- Main wings -->
        <rect x="-24" y="-16" width="48" height="8" fill="#7a8c6e"/>
        <!-- Tail wings -->
        <rect x="-16" y="8" width="32" height="6" fill="#7a8c6e"/>
        <!-- Center tail -->
        <rect x="-3" y="8" width="6" height="14" fill="#bfc7b2"/>
        <!-- Missiles -->
        <rect x="-28" y="-8" width="6" height="16" fill="#e6e6e6"/>
        <rect x="22" y="-8" width="6" height="16" fill="#e6e6e6"/>
        <!-- Red details -->
        <rect x="-8" y="-8" width="4" height="8" fill="#d32f2f"/>
        <rect x="4" y="-8" width="4" height="8" fill="#d32f2f"/>
    </g>
    <!-- Game title -->
    <text x="256" y="450" font-family="Arial" font-size="24" fill="#00ff00" text-anchor="middle">ALIEN INVASION</text>
</svg>
