<?xml version="1.0" standalone="no"?>
<svg version="1.0" xmlns="http://www.w3.org/2000/svg"
 width="512.000000pt" height="512.000000pt" viewBox="0 0 512.000000 512.000000"
 preserveAspectRatio="xMidYMid meet">

<g transform="translate(0.000000,512.000000) scale(0.100000,-0.100000)"
fill="#000000" stroke="none">
<path d="M2328 4679 c-777 -107 -1396 -688 -1548 -1454 -28 -140 -38 -421 -21
-591 51 -509 263 -1032 597 -1477 306 -407 696 -716 1019 -809 111 -31 259
-31 370 0 506 144 1104 770 1399 1462 164 387 234 740 223 1123 -6 211 -27
338 -88 520 -207 619 -730 1078 -1375 1207 -85 18 -153 23 -309 26 -110 1
-230 -1 -267 -7z m500 -440 c409 -79 764 -345 962 -720 169 -322 199 -707 90
-1139 -54 -213 -117 -376 -228 -595 -236 -461 -597 -858 -905 -994 -77 -34
-88 -36 -187 -36 -99 0 -110 2 -187 36 -133 59 -245 141 -394 289 -75 74 -163
169 -195 210 -248 315 -461 743 -547 1100 -62 254 -78 535 -43 730 104 573
559 1027 1126 1124 52 9 113 18 135 20 77 8 271 -5 373 -25z"/>
<path d="M1287 2763 c-12 -12 -7 -169 8 -256 81 -464 474 -796 942 -797 l102
0 6 53 c9 72 -12 235 -42 332 -47 150 -116 266 -224 380 -132 138 -310 238
-494 276 -88 18 -284 26 -298 12z"/>
<path d="M3590 2763 c-371 -64 -662 -315 -773 -668 -31 -98 -51 -260 -42 -333
l7 -55 131 6 c156 6 253 29 376 87 264 127 446 349 522 638 15 55 21 113 22
202 l2 125 -110 1 c-60 1 -121 0 -135 -3z"/>
</g>
</svg>
